# xmcd
#
# Track frame offsets: 
#        150
#        5276
#        17930
#        35225
#        65945
#        87255
#        115961
#        151200
#        166666
#        183686
#
# Disc length: 2580 seconds
#
# Revision: 25
# Processed by: cddbd v1.5.2PL0 Copyright (c) Steve Scherf et al.
# Submitted via: ExactAudioCopy v1.5
#
DISCID=810a120a
DTITLE=PINK FLOYD - The Dark Side of the Moon
DYEAR=1973
DGENRE=Rock
TTITLE0=Speak to Me
TTITLE1=Breathe
TTITLE2=On the Run
TTITLE3=Time
TTITLE4=The Great Gig in the Sky
TTITLE5=Money
TTITLE6=Us and Them
TTITLE7=Any Colour You Like
TTITLE8=Brain Damage
TTITLE9=Eclipse
EXTD=YEAR: 1973
EXTT0=
EXTT1=
EXTT2=
EXTT3=
EXTT4=
EXTT5=
EXTT6=
EXTT7=
EXTT8=
EXTT9=
PLAYORDER=
